<mxfile host="app.diagrams.net" modified="2023-02-13T04:31:33.032Z" agent="5.0 (X11)" etag="qqriR3r5VWQTyb894k1W" version="20.8.18" type="github">
  <diagram name="Page-1" id="P3PQngJmLElXmFgzYFwt">
    <mxGraphModel dx="1144" dy="647" grid="1" gridSize="10" guides="1" tooltips="1" connect="1" arrows="1" fold="1" page="1" pageScale="1" pageWidth="850" pageHeight="1100" math="0" shadow="0">
      <root>
        <mxCell id="0" />
        <mxCell id="1" parent="0" />
        <mxCell id="cWZmI4s8moaGlqcUPDwN-1" value="Admin" style="swimlane;horizontal=0;whiteSpace=wrap;html=1;" vertex="1" parent="1">
          <mxGeometry x="40" y="130" width="910" height="160" as="geometry" />
        </mxCell>
        <mxCell id="cWZmI4s8moaGlqcUPDwN-2" value="Choose Account to Remove" style="shape=ellipse;html=1;fillColor=strokeColor;strokeWidth=2;verticalLabelPosition=bottom;verticalAlignment=top;perimeter=ellipsePerimeter;" vertex="1" parent="cWZmI4s8moaGlqcUPDwN-1">
          <mxGeometry x="80" y="70" width="40" height="40" as="geometry" />
        </mxCell>
        <mxCell id="cWZmI4s8moaGlqcUPDwN-3" value="" style="ellipse;html=1;shape=endState;fillColor=#000000;strokeColor=#ff0000;strokeWidth=2;fontFamily=Helvetica;fontSize=12;fontColor=default;" vertex="1" parent="cWZmI4s8moaGlqcUPDwN-1">
          <mxGeometry x="860" y="70" width="30" height="30" as="geometry" />
        </mxCell>
        <mxCell id="cWZmI4s8moaGlqcUPDwN-4" value="ProfileController" style="swimlane;horizontal=0;whiteSpace=wrap;html=1;" vertex="1" parent="1">
          <mxGeometry x="40" y="300" width="910" height="150" as="geometry" />
        </mxCell>
        <mxCell id="cWZmI4s8moaGlqcUPDwN-5" value="Display Account List" style="rounded=1;whiteSpace=wrap;html=1;strokeWidth=2;fontFamily=Helvetica;fontSize=12;" vertex="1" parent="cWZmI4s8moaGlqcUPDwN-4">
          <mxGeometry x="770" y="40" width="120" height="60" as="geometry" />
        </mxCell>
        <mxCell id="cWZmI4s8moaGlqcUPDwN-7" value="Account" style="swimlane;horizontal=0;whiteSpace=wrap;html=1;" vertex="1" parent="1">
          <mxGeometry x="40" y="460" width="910" height="200" as="geometry" />
        </mxCell>
        <mxCell id="cWZmI4s8moaGlqcUPDwN-8" style="edgeStyle=orthogonalEdgeStyle;rounded=0;orthogonalLoop=1;jettySize=auto;html=1;entryX=0;entryY=0.5;entryDx=0;entryDy=0;dashed=1;" edge="1" parent="cWZmI4s8moaGlqcUPDwN-7" source="cWZmI4s8moaGlqcUPDwN-9" target="cWZmI4s8moaGlqcUPDwN-10">
          <mxGeometry relative="1" as="geometry">
            <mxPoint x="590" y="65" as="targetPoint" />
            <Array as="points" />
          </mxGeometry>
        </mxCell>
        <mxCell id="cWZmI4s8moaGlqcUPDwN-9" value="Delete user id from User_to_Account" style="rounded=1;whiteSpace=wrap;html=1;strokeWidth=2;fontFamily=Helvetica;fontSize=12;" vertex="1" parent="cWZmI4s8moaGlqcUPDwN-7">
          <mxGeometry x="150" y="60" width="120" height="60" as="geometry" />
        </mxCell>
        <mxCell id="cWZmI4s8moaGlqcUPDwN-10" value="Send back Account of User" style="rounded=1;whiteSpace=wrap;html=1;strokeWidth=2;fontFamily=Helvetica;fontSize=12;" vertex="1" parent="cWZmI4s8moaGlqcUPDwN-7">
          <mxGeometry x="590" y="60" width="120" height="60" as="geometry" />
        </mxCell>
        <mxCell id="cWZmI4s8moaGlqcUPDwN-11" style="edgeStyle=orthogonalEdgeStyle;rounded=0;orthogonalLoop=1;jettySize=auto;html=1;entryX=0.5;entryY=1;entryDx=0;entryDy=0;dashed=1;strokeWidth=1;fontFamily=Helvetica;fontSize=12;fontColor=default;" edge="1" parent="1" source="cWZmI4s8moaGlqcUPDwN-5" target="cWZmI4s8moaGlqcUPDwN-3">
          <mxGeometry relative="1" as="geometry" />
        </mxCell>
        <mxCell id="cWZmI4s8moaGlqcUPDwN-13" value="Remove User from Account" style="text;html=1;strokeColor=none;fillColor=none;align=center;verticalAlign=middle;whiteSpace=wrap;rounded=0;fontSize=19;" vertex="1" parent="1">
          <mxGeometry x="420" y="80" width="280" height="30" as="geometry" />
        </mxCell>
        <mxCell id="cWZmI4s8moaGlqcUPDwN-14" style="edgeStyle=orthogonalEdgeStyle;rounded=0;orthogonalLoop=1;jettySize=auto;html=1;entryX=0.36;entryY=1.053;entryDx=0;entryDy=0;entryPerimeter=0;dashed=1;" edge="1" parent="1" target="cWZmI4s8moaGlqcUPDwN-5">
          <mxGeometry relative="1" as="geometry">
            <mxPoint x="750" y="540" as="sourcePoint" />
          </mxGeometry>
        </mxCell>
        <mxCell id="cWZmI4s8moaGlqcUPDwN-16" style="edgeStyle=orthogonalEdgeStyle;rounded=0;orthogonalLoop=1;jettySize=auto;html=1;dashed=1;" edge="1" parent="1" source="cWZmI4s8moaGlqcUPDwN-2" target="cWZmI4s8moaGlqcUPDwN-9">
          <mxGeometry relative="1" as="geometry" />
        </mxCell>
      </root>
    </mxGraphModel>
  </diagram>
</mxfile>
